<?xml version="1.0" encoding="UTF-8"?>
<svg id="Layer_1" xmlns="http://www.w3.org/2000/svg" version="1.1" viewBox="0 0 200 200">
  <!-- Generator: Adobe Illustrator 30.1.0, SVG Export Plug-In . SVG Version: 2.1.1 Build 136)  -->
  <defs>
    <style>
      .st0 {
        fill: #fff;
      }

      .st1 {
        fill-rule: evenodd;
      }

      .st1, .st2 {
        fill: #f39e1e;
      }
    </style>
  </defs>
  <rect class="st2" x="90.74" y="98.07" width="91.7" height="14.51" rx=".85" ry=".85"/>
  <g>
    <path class="st2" d="M102.6,95.24v-3.9c0-.65-.24-.97-1.25-.97h-4.56v4.87h-5.07v-14.32h11.24c3.78,0,4.6.84,4.6,3.42v2.14c0,1.26-.58,1.95-1.43,2.21.78.19,1.51.89,1.51,2.06v4.48h-5.05ZM102.6,85.4c0-.54-.14-.84-.97-.84h-4.85v2.51h4.85c.89,0,.97-.32.97-.97v-.69Z"/>
    <path class="st2" d="M109.33,95.24v-14.32h5.07v14.32h-5.07Z"/>
    <path class="st2" d="M121.11,95.24v-5.85l-5.67-8.47h5.87l2.37,4.18,2.43-4.18h5.73l-5.67,8.47v5.85h-5.07Z"/>
    <path class="st2" d="M140.58,93.16h-5.03l-.62,2.08h-5.57l5.39-14.32h6.47l5.39,14.32h-5.39l-.64-2.08ZM136.64,89.65h2.84l-1.43-4.59-1.41,4.59Z"/>
    <path class="st2" d="M147.76,95.24v-14.32h10.8c3.76,0,5.11.58,5.11,3.42v7.48c0,2.81-1.25,3.42-5.11,3.42h-10.8ZM158.61,85.55c0-.69-.28-.99-1.45-.99h-4.32v7.04h4.32c.97,0,1.45-.32,1.45-.97v-5.07Z"/>
    <path class="st2" d="M176.38,95.24v-5.35h-5.77v5.35h-5.11v-14.32h5.11v5.33h5.77v-5.33h5.09v14.32h-5.09Z"/>
  </g>
  <g>
    <path class="st0" d="M95.5,108.28v-1.7h4.61c.2,0,.29-.1.29-.36v-.1c0-.25-.09-.34-.29-.34h-2.97c-1.12,0-1.7-.52-1.7-1.4v-1.21c0-1.14.37-1.58,1.94-1.58h4.71v1.71h-4.23c-.24,0-.32.12-.32.36v.1c0,.24.08.34.32.34h2.92c1.2,0,1.71.58,1.71,1.59v.99c0,1.09-.46,1.6-1.84,1.6h-5.15Z"/>
    <path class="st0" d="M105.35,108.28c-1.69,0-2.26-.28-2.26-1.6v-3.5c0-1.31.57-1.6,2.26-1.6h4.51v1.71h-3.87c-.47,0-.64.15-.64.45v2.38c0,.3.21.46.64.46h3.87v1.7h-4.51Z"/>
    <path class="st0" d="M115.39,108.28v-1.83c0-.3-.1-.45-.55-.45h-2.02v2.28h-2.24v-6.7h4.97c1.67,0,2.04.4,2.04,1.6v1c0,.59-.26.91-.63,1.04.35.09.67.41.67.96v2.09h-2.23ZM115.39,103.68c0-.25-.06-.39-.43-.39h-2.14v1.17h2.14c.39,0,.43-.15.43-.45v-.32Z"/>
    <path class="st0" d="M122.93,107.31h-2.22l-.28.97h-2.46l2.38-6.7h2.86l2.38,6.7h-2.38l-.28-.97ZM121.18,105.67h1.25l-.63-2.15-.62,2.15Z"/>
    <path class="st0" d="M128.3,106.1v2.18h-2.25v-6.7h4.77c1.71,0,2.26.27,2.26,1.6v1.32c0,1.34-.59,1.6-2.26,1.6h-2.52ZM130.86,103.73c0-.3-.11-.44-.44-.44h-2.11v1.16h2.11c.35,0,.44-.12.44-.46v-.25Z"/>
    <path class="st0" d="M138.87,106.1v2.18h-2.25v-6.7h4.77c1.71,0,2.26.27,2.26,1.6v1.32c0,1.34-.59,1.6-2.26,1.6h-2.52ZM141.42,103.73c0-.3-.11-.44-.44-.44h-2.11v1.16h2.11c.35,0,.44-.12.44-.46v-.25Z"/>
    <path class="st0" d="M144.25,108.28v-6.7h2.24v6.7h-2.24Z"/>
    <path class="st0" d="M149.54,108.28c-1.69,0-2.26-.28-2.26-1.6v-3.5c0-1.31.57-1.6,2.26-1.6h4.51v1.71h-3.87c-.47,0-.64.15-.64.45v2.38c0,.3.21.46.64.46h3.87v1.7h-4.51Z"/>
    <path class="st0" d="M159.66,108.28v-2.03c0-.3-.21-.47-.65-.47h-2v2.49h-2.24v-6.7h2.24v3.25l2.57-3.25h2.44l-2.15,2.63h.35c1.24,0,1.69.48,1.69,1.47v2.59h-2.24Z"/>
    <path class="st0" d="M164.88,108.28c-1.69,0-2.26-.28-2.26-1.6v-5.1h2.25v4.54c0,.35.13.46.66.46h1.62c.52,0,.65-.1.65-.46v-4.54h2.23v5.1c0,1.31-.55,1.6-2.24,1.6h-2.9Z"/>
    <path class="st0" d="M173.06,106.1v2.18h-2.24v-6.7h4.77c1.71,0,2.25.27,2.25,1.6v1.32c0,1.34-.58,1.6-2.25,1.6h-2.52ZM175.61,103.73c0-.3-.1-.44-.44-.44h-2.1v1.16h2.1c.36,0,.44-.12.44-.46v-.25Z"/>
  </g>
  <g>
    <path class="st2" d="M24.95,83.81c-.46-.05-.92.26-.97.71-.1.41.2.87.66.92.46.1.87-.2.97-.66.05-.46-.26-.87-.66-.97ZM24.95,83.81c-.46-.05-.92.26-.97.71-.1.41.2.87.66.92.46.1.87-.2.97-.66.05-.46-.26-.87-.66-.97ZM49.57,82.63c-.56-.05-1.07.31-1.17.87-.1.56.31,1.07.87,1.17.56.1,1.07-.26,1.17-.82.1-.56-.31-1.12-.87-1.23ZM24.95,83.81c-.46-.05-.92.26-.97.71-.1.41.2.87.66.92.46.1.87-.2.97-.66.05-.46-.26-.87-.66-.97ZM24.95,83.81c-.46-.05-.92.26-.97.71-.1.41.2.87.66.92.46.1.87-.2.97-.66.05-.46-.26-.87-.66-.97ZM49.57,82.63c-.56-.05-1.07.31-1.17.87-.1.56.31,1.07.87,1.17.56.1,1.07-.26,1.17-.82.1-.56-.31-1.12-.87-1.23ZM49.57,82.63c-.56-.05-1.07.31-1.17.87-.1.56.31,1.07.87,1.17.56.1,1.07-.26,1.17-.82.1-.56-.31-1.12-.87-1.23ZM24.95,83.81c-.46-.05-.92.26-.97.71-.1.41.2.87.66.92.46.1.87-.2.97-.66.05-.46-.26-.87-.66-.97ZM24.95,83.81c-.46-.05-.92.26-.97.71-.1.41.2.87.66.92.46.1.87-.2.97-.66.05-.46-.26-.87-.66-.97ZM49.57,82.63c-.56-.05-1.07.31-1.17.87-.1.56.31,1.07.87,1.17.56.1,1.07-.26,1.17-.82.1-.56-.31-1.12-.87-1.23ZM49.57,82.63c-.56-.05-1.07.31-1.17.87-.1.56.31,1.07.87,1.17.56.1,1.07-.26,1.17-.82.1-.56-.31-1.12-.87-1.23ZM24.95,83.81c-.46-.05-.92.26-.97.71-.1.41.2.87.66.92.46.1.87-.2.97-.66.05-.46-.26-.87-.66-.97ZM24.95,83.81c-.46-.05-.92.26-.97.71-.1.41.2.87.66.92.46.1.87-.2.97-.66.05-.46-.26-.87-.66-.97ZM49.57,82.63c-.56-.05-1.07.31-1.17.87-.1.56.31,1.07.87,1.17.56.1,1.07-.26,1.17-.82.1-.56-.31-1.12-.87-1.23ZM49.57,82.63c-.56-.05-1.07.31-1.17.87-.1.56.31,1.07.87,1.17.56.1,1.07-.26,1.17-.82.1-.56-.31-1.12-.87-1.23ZM24.95,83.81c-.46-.05-.92.26-.97.71-.1.41.2.87.66.92.46.1.87-.2.97-.66.05-.46-.26-.87-.66-.97ZM49.57,82.63c-.56-.05-1.07.31-1.17.87-.1.56.31,1.07.87,1.17.56.1,1.07-.26,1.17-.82.1-.56-.31-1.12-.87-1.23ZM24.95,83.81c-.46-.05-.92.26-.97.71-.1.41.2.87.66.92.46.1.87-.2.97-.66.05-.46-.26-.87-.66-.97ZM24.95,83.81c-.46-.05-.92.26-.97.71-.1.41.2.87.66.92.46.1.87-.2.97-.66.05-.46-.26-.87-.66-.97ZM49.57,82.63c-.56-.05-1.07.31-1.17.87-.1.56.31,1.07.87,1.17.56.1,1.07-.26,1.17-.82.1-.56-.31-1.12-.87-1.23ZM49.57,82.63c-.56-.05-1.07.31-1.17.87-.1.56.31,1.07.87,1.17.56.1,1.07-.26,1.17-.82.1-.56-.31-1.12-.87-1.23ZM24.95,83.81c-.46-.05-.92.26-.97.71-.1.41.2.87.66.92.46.1.87-.2.97-.66.05-.46-.26-.87-.66-.97ZM24.95,83.81c-.46-.05-.92.26-.97.71-.1.41.2.87.66.92.46.1.87-.2.97-.66.05-.46-.26-.87-.66-.97ZM49.57,82.63c-.56-.05-1.07.31-1.17.87-.1.56.31,1.07.87,1.17.56.1,1.07-.26,1.17-.82.1-.56-.31-1.12-.87-1.23ZM24.95,83.81c-.46-.05-.92.26-.97.71-.1.41.2.87.66.92.46.1.87-.2.97-.66.05-.46-.26-.87-.66-.97ZM24.95,83.81c-.46-.05-.92.26-.97.71-.1.41.2.87.66.92.46.1.87-.2.97-.66.05-.46-.26-.87-.66-.97Z"/>
    <path class="st2" d="M24.16,107.88s-3.86.67-3.81,2.7,3.28,5.63,3.28,5.63l-.98-5.21,1.51-3.13Z"/>
    <path class="st2" d="M28.06,107.91s3.86.67,3.81,2.7c-.04,2.04-3.28,5.63-3.28,5.63l.98-5.21-1.51-3.13Z"/>
    <polygon class="st2" points="25.52 107.88 24.47 110.86 25.87 117.03 27.61 110.86 26.71 107.86 25.52 107.88"/>
    <path class="st1" d="M25.46,106.48c0-.26.26-.46.51-.41.26,0,.46.26.46.51-.05.26-.26.46-.51.41-.31,0-.51-.26-.46-.51Z"/>
    <path class="st1" d="M27.45,105.97c-.15-.15-.41-.26-.66-.26h-1.53c-.26,0-.51.1-.72.31-.1.15-.2.36-.2.61v.92c0,.51.41.92.92.92h1.63c.46-.05.82-.46.82-.92v-.92c0-.26-.1-.46-.26-.66ZM25.97,105.82c.41.05.71.36.66.77-.05.41-.36.66-.77.66-.36-.05-.66-.41-.66-.77.05-.41.41-.66.77-.66Z"/>
    <path class="st2" d="M77.81,98.11c2.55-.77,4.34-2.71,4.34-6.28v-6.03c0-7.3-2.5-9.7-14.05-9.7h-11.37c-1.54,0-3.07.16-4.58.48l-27.72,5.85c-.77.15-1.43.72-1.69,1.48-.05.15-.05.26-.1.36-.1.72.1,1.38.56,1.94.46.46,1.07.72,1.69.66l13.79-.26,4.39-.1,10.93-.15h10.06c2.5,0,2.96.87,2.96,2.4v1.99c0,1.84-.26,2.76-2.96,2.76h-23.65c-3.61,0-6.54,2.93-6.54,6.54v16.55h15.42v-10.73c0-1.69,1.38-3.06,3.06-3.06h10.83c3.12,0,3.83.92,3.83,2.76v11.03h15.37v-12.72c0-3.27-2.2-5.26-4.6-5.77ZM24.59,85.85c-.66-.1-1.12-.77-1.02-1.43.1-.66.77-1.12,1.43-.97.66.1,1.12.71.97,1.38-.1.66-.72,1.12-1.38,1.02ZM49.16,85.18c-.82-.15-1.38-.97-1.23-1.79.1-.82.92-1.38,1.74-1.23.82.15,1.38.92,1.23,1.74-.15.82-.92,1.38-1.74,1.28ZM51,80.43l-22.06,3.12.15-.61,22.47-4.29-.56,1.79Z"/>
    <path class="st2" d="M28.28,94.59l.25-3.53c.05-.2,0-.41-.05-.56l-.66-2.25c-.1-.36-.41-.56-.77-.51l-1.63.31c-.2,0-.36.05-.56,0-.72,0-1.38-.31-1.89-.82l-.72-.77,2.3,19.56.1.87c.05.36.2.66.51.87l.2.15c.05,0,.05.05.1.05.36.2.87.2,1.23-.05.1,0,.15-.05.2-.1l.1-.1c.26-.2.41-.51.41-.82l.05-.92.82-11.29M25.1,104.44l-1.74-15.02c0-.15.1-.31.26-.31h.26c.1,0,.2.1.26.2l1.69,5.72c.1.41.15.82.15,1.23l-.26,8.58-.26-.05c-.15,0-.36-.15-.36-.36ZM25.87,107.25c-.36-.05-.66-.41-.66-.77.05-.41.41-.66.77-.66.41.05.71.36.66.77-.05.41-.36.66-.77.66Z"/>
  </g>
</svg>