<?xml version="1.0" encoding="UTF-8"?>
<svg id="Layer_1" xmlns="http://www.w3.org/2000/svg" version="1.1" viewBox="0 0 200 200">
  <!-- Generator: Adobe Illustrator 30.1.0, SVG Export Plug-In . SVG Version: 2.1.1 Build 136)  -->
  <defs>
    <style>
      .st0, .st1 {
        fill: #fff;
      }

      .st1 {
        fill-rule: evenodd;
      }
    </style>
  </defs>
  <path class="st1" d="M113.74,106.81h-2.16v1.19h2.16c.39,0,.43-.15.43-.46v-.32c0-.26-.06-.4-.43-.4ZM120.68,107.04l-.63,2.18h1.27l-.64-2.18ZM120.68,107.04l-.63,2.18h1.27l-.64-2.18ZM113.74,106.81h-2.16v1.19h2.16c.39,0,.43-.15.43-.46v-.32c0-.26-.06-.4-.43-.4ZM113.74,106.81h-2.16v1.19h2.16c.39,0,.43-.15.43-.46v-.32c0-.26-.06-.4-.43-.4ZM120.68,107.04l-.63,2.18h1.27l-.64-2.18ZM129.39,106.81h-2.13v1.18h2.13c.36,0,.45-.13.45-.47v-.26c0-.31-.11-.45-.45-.45ZM140.1,106.81h-2.14v1.18h2.14c.36,0,.44-.13.44-.47v-.26c0-.31-.11-.45-.44-.45ZM140.1,106.81h-2.14v1.18h2.14c.36,0,.44-.13.44-.47v-.26c0-.31-.11-.45-.44-.45ZM129.39,106.81h-2.13v1.18h2.13c.36,0,.45-.13.45-.47v-.26c0-.31-.11-.45-.45-.45ZM120.68,107.04l-.63,2.18h1.27l-.64-2.18ZM113.74,106.81h-2.16v1.19h2.16c.39,0,.43-.15.43-.46v-.32c0-.26-.06-.4-.43-.4ZM113.74,106.81h-2.16v1.19h2.16c.39,0,.43-.15.43-.46v-.32c0-.26-.06-.4-.43-.4ZM120.68,107.04l-.63,2.18h1.27l-.64-2.18ZM129.39,106.81h-2.13v1.18h2.13c.36,0,.45-.13.45-.47v-.26c0-.31-.11-.45-.45-.45ZM140.1,106.81h-2.14v1.18h2.14c.36,0,.44-.13.44-.47v-.26c0-.31-.11-.45-.44-.45ZM140.1,106.81h-2.14v1.18h2.14c.36,0,.44-.13.44-.47v-.26c0-.31-.11-.45-.44-.45ZM129.39,106.81h-2.13v1.18h2.13c.36,0,.45-.13.45-.47v-.26c0-.31-.11-.45-.45-.45ZM120.68,107.04l-.63,2.18h1.27l-.64-2.18ZM113.74,106.81h-2.16v1.19h2.16c.39,0,.43-.15.43-.46v-.32c0-.26-.06-.4-.43-.4ZM113.74,106.81h-2.16v1.19h2.16c.39,0,.43-.15.43-.46v-.32c0-.26-.06-.4-.43-.4ZM120.68,107.04l-.63,2.18h1.27l-.64-2.18ZM129.39,106.81h-2.13v1.18h2.13c.36,0,.45-.13.45-.47v-.26c0-.31-.11-.45-.45-.45ZM140.1,106.81h-2.14v1.18h2.14c.36,0,.44-.13.44-.47v-.26c0-.31-.11-.45-.44-.45ZM140.1,106.81h-2.14v1.18h2.14c.36,0,.44-.13.44-.47v-.26c0-.31-.11-.45-.44-.45ZM129.39,106.81h-2.13v1.18h2.13c.36,0,.45-.13.45-.47v-.26c0-.31-.11-.45-.45-.45ZM120.68,107.04l-.63,2.18h1.27l-.64-2.18ZM113.74,106.81h-2.16v1.19h2.16c.39,0,.43-.15.43-.46v-.32c0-.26-.06-.4-.43-.4ZM181.23,101.53h-91.15c-.47,0-.86.38-.86.86v12.99c0,.47.38.86.86.86h91.15c.47,0,.86-.38.86-.86v-12.99c0-.47-.38-.86-.86-.86ZM101.12,110.25c0,1.1-.47,1.62-1.86,1.62h-5.22v-1.72h4.68c.21,0,.29-.11.29-.37v-.11c0-.25-.09-.34-.29-.34h-3.01c-1.13,0-1.72-.53-1.72-1.42v-1.22c0-1.15.38-1.6,1.96-1.6h4.77v1.73h-4.28c-.24,0-.32.12-.32.37v.1c0,.25.09.35.32.35h2.97c1.21,0,1.73.58,1.73,1.61v1.01ZM108.59,106.81h-3.92c-.48,0-.65.15-.65.46v2.41c0,.31.21.46.65.46h3.92v1.72h-4.57c-1.71,0-2.28-.28-2.28-1.62v-3.54c0-1.33.57-1.62,2.28-1.62h4.57v1.73ZM116.44,111.86h-2.27v-1.85c0-.31-.1-.46-.56-.46h-2.04v2.31h-2.27v-6.78h5.03c1.69,0,2.06.4,2.06,1.62v1.01c0,.6-.26.92-.63,1.05.35.09.68.42.68.97v2.12ZM122.1,111.86l-.29-.98h-2.24l-.28.98h-2.5l2.41-6.78h2.9l2.41,6.78h-2.41ZM132.1,108.04c0,1.35-.6,1.62-2.29,1.62h-2.55v2.21h-2.28v-6.78h4.83c1.73,0,2.29.27,2.29,1.62v1.33ZM142.8,108.04c0,1.35-.59,1.62-2.28,1.62h-2.56v2.21h-2.27v-6.78h4.83c1.73,0,2.28.27,2.28,1.62v1.33ZM145.68,111.86h-2.27v-6.78h2.27v6.78ZM153.34,106.81h-3.92c-.48,0-.65.15-.65.46v2.41c0,.31.21.46.65.46h3.92v1.72h-4.57c-1.71,0-2.28-.28-2.28-1.62v-3.54c0-1.33.57-1.62,2.28-1.62h4.57v1.73ZM159.57,107.75c1.27,0,1.71.49,1.71,1.49v2.63h-2.27v-2.05c0-.31-.21-.47-.67-.47h-2.02v2.52h-2.27v-6.78h2.27v3.29l2.6-3.29h2.47l-2.18,2.67h.35ZM169.51,110.25c0,1.32-.56,1.62-2.27,1.62h-2.94c-1.71,0-2.29-.28-2.29-1.62v-5.16h2.28v4.6c0,.35.14.46.67.46h1.63c.53,0,.66-.11.66-.46v-4.6h2.26v5.16ZM177.43,108.04c0,1.35-.6,1.62-2.28,1.62h-2.56v2.21h-2.27v-6.78h4.83c1.73,0,2.28.27,2.28,1.62v1.33ZM174.72,106.81h-2.13v1.18h2.13c.36,0,.44-.13.44-.47v-.26c0-.31-.1-.45-.44-.45ZM140.1,106.81h-2.14v1.18h2.14c.36,0,.44-.13.44-.47v-.26c0-.31-.11-.45-.44-.45ZM129.39,106.81h-2.13v1.18h2.13c.36,0,.45-.13.45-.47v-.26c0-.31-.11-.45-.45-.45ZM120.04,109.22h1.27l-.64-2.18-.63,2.18ZM113.74,106.81h-2.16v1.19h2.16c.39,0,.43-.15.43-.46v-.32c0-.26-.06-.4-.43-.4ZM113.74,106.81h-2.16v1.19h2.16c.39,0,.43-.15.43-.46v-.32c0-.26-.06-.4-.43-.4ZM120.68,107.04l-.63,2.18h1.27l-.64-2.18ZM129.39,106.81h-2.13v1.18h2.13c.36,0,.45-.13.45-.47v-.26c0-.31-.11-.45-.45-.45ZM140.1,106.81h-2.14v1.18h2.14c.36,0,.44-.13.44-.47v-.26c0-.31-.11-.45-.44-.45ZM140.1,106.81h-2.14v1.18h2.14c.36,0,.44-.13.44-.47v-.26c0-.31-.11-.45-.44-.45ZM129.39,106.81h-2.13v1.18h2.13c.36,0,.45-.13.45-.47v-.26c0-.31-.11-.45-.45-.45ZM120.68,107.04l-.63,2.18h1.27l-.64-2.18ZM113.74,106.81h-2.16v1.19h2.16c.39,0,.43-.15.43-.46v-.32c0-.26-.06-.4-.43-.4ZM113.74,106.81h-2.16v1.19h2.16c.39,0,.43-.15.43-.46v-.32c0-.26-.06-.4-.43-.4ZM120.68,107.04l-.63,2.18h1.27l-.64-2.18ZM129.39,106.81h-2.13v1.18h2.13c.36,0,.45-.13.45-.47v-.26c0-.31-.11-.45-.45-.45ZM140.1,106.81h-2.14v1.18h2.14c.36,0,.44-.13.44-.47v-.26c0-.31-.11-.45-.44-.45ZM140.1,106.81h-2.14v1.18h2.14c.36,0,.44-.13.44-.47v-.26c0-.31-.11-.45-.44-.45ZM129.39,106.81h-2.13v1.18h2.13c.36,0,.45-.13.45-.47v-.26c0-.31-.11-.45-.45-.45ZM120.68,107.04l-.63,2.18h1.27l-.64-2.18ZM113.74,106.81h-2.16v1.19h2.16c.39,0,.43-.15.43-.46v-.32c0-.26-.06-.4-.43-.4ZM113.74,106.81h-2.16v1.19h2.16c.39,0,.43-.15.43-.46v-.32c0-.26-.06-.4-.43-.4ZM120.68,107.04l-.63,2.18h1.27l-.64-2.18ZM129.39,106.81h-2.13v1.18h2.13c.36,0,.45-.13.45-.47v-.26c0-.31-.11-.45-.45-.45ZM129.39,106.81h-2.13v1.18h2.13c.36,0,.45-.13.45-.47v-.26c0-.31-.11-.45-.45-.45ZM120.68,107.04l-.63,2.18h1.27l-.64-2.18ZM113.74,106.81h-2.16v1.19h2.16c.39,0,.43-.15.43-.46v-.32c0-.26-.06-.4-.43-.4ZM113.74,106.81h-2.16v1.19h2.16c.39,0,.43-.15.43-.46v-.32c0-.26-.06-.4-.43-.4ZM113.74,106.81h-2.16v1.19h2.16c.39,0,.43-.15.43-.46v-.32c0-.26-.06-.4-.43-.4Z"/>
  <g>
    <path class="st0" d="M104.81,92.03c.86-.26,1.45-.96,1.45-2.23v-2.17c0-2.62-.84-3.47-4.66-3.47h-11.39v14.51h5.14v-4.94h4.62c1.02,0,1.27.33,1.27.99v3.95h5.1v-4.55c0-1.18-.73-1.89-1.52-2.09ZM101.22,89.4c0,.65-.09.98-.97.98h-4.91v-2.54h4.91c.83,0,.97.3.97.86v.7Z"/>
    <path class="st0" d="M108.04,84.15v14.51h5.13v-14.51h-5.13Z"/>
    <path class="st0" d="M125.04,84.15l-2.46,4.24-2.39-4.24h-5.95l5.75,8.58v5.93h5.13v-5.93l5.74-8.58h-5.81Z"/>
    <path class="st0" d="M140.34,84.15h-6.56l-5.46,14.51h5.64l.63-2.11h5.09l.65,2.11h5.46l-5.46-14.51ZM135.7,92.99l1.43-4.65,1.45,4.65h-2.87Z"/>
    <path class="st0" d="M157.89,84.15h-10.94v14.51h10.94c3.91,0,5.17-.62,5.17-3.47v-7.57c0-2.87-1.36-3.47-5.17-3.47ZM157.95,93.98c0,.66-.49.98-1.46.98h-4.38v-7.12h4.38c1.18,0,1.46.3,1.46,1v5.14Z"/>
    <path class="st0" d="M175.94,84.15v5.4h-5.84v-5.4h-5.17v14.51h5.17v-5.42h5.84v5.42h5.16v-14.51h-5.16Z"/>
  </g>
  <g>
    <path class="st0" d="M22.58,87.08c-.46-.05-.92.27-.98.73-.1.42.21.88.68.93.47.1.88-.21.98-.68.05-.46-.26-.87-.68-.98ZM22.58,87.08c-.46-.05-.92.27-.98.73-.1.42.21.88.68.93.47.1.88-.21.98-.68.05-.46-.26-.87-.68-.98ZM47.52,85.89c-.56-.05-1.09.32-1.19.88-.1.57.31,1.09.88,1.19.56.1,1.09-.26,1.19-.83.1-.56-.31-1.14-.88-1.24ZM22.58,87.08c-.46-.05-.92.27-.98.73-.1.42.21.88.68.93.47.1.88-.21.98-.68.05-.46-.26-.87-.68-.98ZM22.58,87.08c-.46-.05-.92.27-.98.73-.1.42.21.88.68.93.47.1.88-.21.98-.68.05-.46-.26-.87-.68-.98ZM47.52,85.89c-.56-.05-1.09.32-1.19.88-.1.57.31,1.09.88,1.19.56.1,1.09-.26,1.19-.83.1-.56-.31-1.14-.88-1.24ZM47.52,85.89c-.56-.05-1.09.32-1.19.88-.1.57.31,1.09.88,1.19.56.1,1.09-.26,1.19-.83.1-.56-.31-1.14-.88-1.24ZM22.58,87.08c-.46-.05-.92.27-.98.73-.1.42.21.88.68.93.47.1.88-.21.98-.68.05-.46-.26-.87-.68-.98ZM22.58,87.08c-.46-.05-.92.27-.98.73-.1.42.21.88.68.93.47.1.88-.21.98-.68.05-.46-.26-.87-.68-.98ZM47.52,85.89c-.56-.05-1.09.32-1.19.88-.1.57.31,1.09.88,1.19.56.1,1.09-.26,1.19-.83.1-.56-.31-1.14-.88-1.24ZM22.58,87.08c-.46-.05-.92.27-.98.73-.1.42.21.88.68.93.47.1.88-.21.98-.68.05-.46-.26-.87-.68-.98ZM47.52,85.89c-.56-.05-1.09.32-1.19.88-.1.57.31,1.09.88,1.19.56.1,1.09-.26,1.19-.83.1-.56-.31-1.14-.88-1.24ZM47.52,85.89c-.56-.05-1.09.32-1.19.88-.1.57.31,1.09.88,1.19.56.1,1.09-.26,1.19-.83.1-.56-.31-1.14-.88-1.24ZM22.58,87.08c-.46-.05-.92.27-.98.73-.1.42.21.88.68.93.47.1.88-.21.98-.68.05-.46-.26-.87-.68-.98ZM22.58,87.08c-.46-.05-.92.27-.98.73-.1.42.21.88.68.93.47.1.88-.21.98-.68.05-.46-.26-.87-.68-.98ZM47.52,85.89c-.56-.05-1.09.32-1.19.88-.1.57.31,1.09.88,1.19.56.1,1.09-.26,1.19-.83.1-.56-.31-1.14-.88-1.24ZM47.52,85.89c-.56-.05-1.09.32-1.19.88-.1.57.31,1.09.88,1.19.56.1,1.09-.26,1.19-.83.1-.56-.31-1.14-.88-1.24ZM22.58,87.08c-.46-.05-.92.27-.98.73-.1.42.21.88.68.93.47.1.88-.21.98-.68.05-.46-.26-.87-.68-.98ZM22.58,87.08c-.46-.05-.92.27-.98.73-.1.42.21.88.68.93.47.1.88-.21.98-.68.05-.46-.26-.87-.68-.98ZM47.52,85.89c-.56-.05-1.09.32-1.19.88-.1.57.31,1.09.88,1.19.56.1,1.09-.26,1.19-.83.1-.56-.31-1.14-.88-1.24ZM47.52,85.89c-.56-.05-1.09.32-1.19.88-.1.57.31,1.09.88,1.19.56.1,1.09-.26,1.19-.83.1-.56-.31-1.14-.88-1.24ZM22.58,87.08c-.46-.05-.92.27-.98.73-.1.42.21.88.68.93.47.1.88-.21.98-.68.05-.46-.26-.87-.68-.98ZM22.58,87.08c-.46-.05-.92.27-.98.73-.1.42.21.88.68.93.47.1.88-.21.98-.68.05-.46-.26-.87-.68-.98ZM47.52,85.89c-.56-.05-1.09.32-1.19.88-.1.57.31,1.09.88,1.19.56.1,1.09-.26,1.19-.83.1-.56-.31-1.14-.88-1.24ZM22.58,87.08c-.46-.05-.92.27-.98.73-.1.42.21.88.68.93.47.1.88-.21.98-.68.05-.46-.26-.87-.68-.98ZM22.58,87.08c-.46-.05-.92.27-.98.73-.1.42.21.88.68.93.47.1.88-.21.98-.68.05-.46-.26-.87-.68-.98Z"/>
    <path class="st0" d="M21.78,111.46s-3.91.67-3.86,2.74,3.32,5.7,3.32,5.7l-.99-5.28,1.53-3.17Z"/>
    <path class="st0" d="M25.73,111.49s3.91.67,3.86,2.74c-.04,2.07-3.32,5.7-3.32,5.7l.99-5.28-1.53-3.17Z"/>
    <polygon class="st0" points="23.16 111.46 22.1 114.48 23.52 120.73 25.28 114.48 24.37 111.44 23.16 111.46"/>
    <path class="st1" d="M23.1,110.05c0-.26.26-.47.52-.41.26,0,.47.26.47.52-.05.26-.26.47-.52.41-.31,0-.52-.26-.47-.52Z"/>
    <path class="st1" d="M25.12,109.53c-.15-.15-.42-.26-.68-.26h-1.55c-.27,0-.52.1-.73.31-.1.15-.21.36-.21.62v.93c0,.52.41.93.93.93h1.66c.47-.06.82-.46.82-.93v-.93c0-.26-.1-.46-.26-.67ZM23.62,109.38c.42.05.73.36.68.77-.05.42-.36.68-.78.68-.36-.05-.67-.41-.67-.78.05-.41.41-.67.77-.67Z"/>
    <path class="st0" d="M76.12,101.56c2.59-.78,4.4-2.74,4.4-6.36v-6.11c0-7.4-2.54-9.82-14.23-9.82h-11.52c-1.56,0-3.11.16-4.63.49l-28.07,5.93c-.78.15-1.45.73-1.71,1.5-.05.15-.05.26-.1.36-.1.73.1,1.39.57,1.97.46.46,1.09.72,1.7.67l13.97-.26,4.45-.1,11.06-.15h10.19c2.54,0,3,.88,3,2.43v2.02c0,1.86-.26,2.8-3,2.8h-23.95c-3.65,0-6.62,2.96-6.62,6.62v16.76h15.62v-10.86c0-1.71,1.39-3.1,3.1-3.1h10.96c3.16,0,3.88.93,3.88,2.79v11.18h15.57v-12.88c0-3.31-2.22-5.33-4.66-5.85ZM23.62,88.11c-.1.68-.72,1.15-1.39,1.03-.68-.1-1.14-.77-1.03-1.45s.78-1.14,1.45-.98c.68.1,1.15.73.98,1.39ZM48.86,87.19c-.15.82-.92,1.39-1.75,1.29-.83-.15-1.4-.98-1.24-1.81.1-.83.92-1.39,1.75-1.24.83.15,1.4.93,1.24,1.76ZM48.97,83.66l-22.35,3.16.15-.62,22.76-4.35-.56,1.81Z"/>
    <path class="st0" d="M26.16,93.86l-.68-2.27c-.1-.37-.41-.57-.78-.52l-1.65.32c-.21,0-.36.05-.57,0-.72,0-1.39-.32-1.91-.83l-.73-.78,2.33,19.81.1.88c.05.36.21.67.52.88l.21.15c.05,0,.05.05.1.05,0,0,0,0,.02,0,.36.2.87.2,1.22-.06.02,0,.03,0,.04,0,.08,0,.12-.05.16-.09l.1-.11c.27-.21.42-.51.42-.82l.05-.93.83-11.43v-.09s.26-3.58.26-3.58c.05-.21,0-.41-.05-.56ZM20.98,92.77c0-.15.1-.31.26-.31h.26c.1,0,.21.1.27.21l1.7,5.79c.1.42.15.83.15,1.24l-.26,8.7-.26-.05c-.15,0-.36-.15-.36-.37l-1.76-15.2ZM22.85,110.04c.05-.41.41-.67.77-.67.42.05.73.36.68.77-.05.42-.36.68-.78.68-.36-.05-.67-.41-.67-.78Z"/>
  </g>
</svg>